<svg width="30" height="30" viewBox="0 0 30 30" fill="none" xmlns="http://www.w3.org/2000/svg">
<path d="M0 4.6875C0 2.09867 2.09867 0 4.6875 0H25.3125C27.9013 0 30 2.09867 30 4.6875V25.3125C30 27.9013 27.9013 30 25.3125 30H4.6875C2.09867 30 0 27.9013 0 25.3125V4.6875Z" fill="black"/>
<path d="M16.9512 12.4283C14.9531 10.7822 14.6968 7.85233 16.3788 5.88431L17.43 4.6543C19.1119 2.68627 22.0952 2.42532 24.0933 4.07143L25.3692 5.12256C27.3673 6.76867 27.6235 9.69851 25.9416 11.6665L24.8904 12.8965C23.2084 14.8646 20.2252 15.1255 18.2271 13.4794L16.9512 12.4283Z" fill="#F1F2F9"/>
<path d="M2.77778 7.96023C2.77778 5.37139 4.87645 3.27272 7.46528 3.27272H9.20139C11.7902 3.27272 13.8889 5.37139 13.8889 7.96022V9.49431C13.8889 12.0831 11.7902 14.1818 9.20139 14.1818H7.46529C4.87645 14.1818 2.77778 12.0832 2.77778 9.49432V7.96023Z" fill="#F1F2F9"/>
<path d="M15.5556 20.5057C15.5556 17.9169 17.6542 15.8182 20.2431 15.8182H21.9792C24.568 15.8182 26.6667 17.9169 26.6667 20.5057V22.0398C26.6667 24.6286 24.568 26.7273 21.9792 26.7273H20.2431C17.6542 26.7273 15.5556 24.6286 15.5556 22.0398V20.5057Z" fill="#F1F2F9"/>
<path d="M2.77778 20.5057C2.77778 17.9169 4.87645 15.8182 7.46528 15.8182H9.20139C11.7902 15.8182 13.8889 17.9169 13.8889 20.5057V22.0398C13.8889 24.6286 11.7902 26.7273 9.20139 26.7273H7.46529C4.87645 26.7273 2.77778 24.6286 2.77778 22.0398V20.5057Z" fill="#F1F2F9"/>
</svg>
